<svg xmlns="http://www.w3.org/2000/svg" enable-background="new 0 0 24 24" viewBox="0 0 24 24" id="pied-piper-pp">
  <path fill="#378A3B" d="M9.299 5.614c-.381 0-.686.08-.921.225v3.643C8.614 9.616 8.919 9.68 9.299 9.68c.937 0 1.698-.911 1.698-2.041C10.998 6.519 10.237 5.614 9.299 5.614zM13.816 11.227v.001c-.381 0-.686.08-.921.225v3.642c.235.134.541.198.921.198.933 0 1.698-.905 1.698-2.025C15.514 12.138 14.749 11.227 13.816 11.227z"></path>
  <path fill="#378A3B" d="M23.25,20.839V3.161c0-1.331-1.08-2.411-2.411-2.411H3.161C1.83,0.75,0.75,1.83,0.75,3.161v17.679c0,1.331,1.08,2.411,2.411,2.411h17.679C22.17,23.25,23.25,22.17,23.25,20.839z"></path>
  <path fill="#FFF" d="M8.384 11.695v2.711l-2.775.541V3.895h2.448c.562-.299 1.21-.471 1.854-.471 2.197 0 3.975 1.908 3.975 4.264s-1.778 4.264-3.975 4.264C9.353 11.952 8.845 11.86 8.384 11.695zM19.652 13.251c0 2.357-1.779 4.264-3.965 4.264-.562 0-1.076-.08-1.537-.251v2.711l-2.775.54v-7.301c1.05-.053 2.089-1.183 2.829-1.986.488-.514.777-1.535.975-2.204.171-.027.343-.038.514-.038 2.181 0 3.959 1.906 3.959 4.264V13.251z"></path>
  <path d="M21.25,24H2.75C1.233,24,0,22.767,0,21.25V2.75C0,1.233,1.233,0,2.75,0h18.5C22.767,0,24,1.233,24,2.75v18.5C24,22.767,22.767,24,21.25,24z M2.75,1.5C2.061,1.5,1.5,2.061,1.5,2.75v18.5c0,0.689,0.561,1.25,1.25,1.25h18.5c0.689,0,1.25-0.561,1.25-1.25V2.75c0-0.689-0.561-1.25-1.25-1.25H2.75z"></path>
  <path d="M11.25,14.16c-0.324,0-0.623-0.212-0.72-0.538c-0.116-0.397,0.11-0.814,0.508-0.932c1.676-0.492,3.02-1.884,3.509-3.633c0.111-0.398,0.524-0.63,0.925-0.521c0.398,0.112,0.632,0.525,0.521,0.925c-0.628,2.242-2.363,4.031-4.53,4.668C11.391,14.15,11.319,14.16,11.25,14.16z"></path>
  <path d="M5.5,15.25c-0.173,0-0.342-0.06-0.478-0.172C4.85,14.936,4.75,14.724,4.75,14.5V3.949c0-0.414,0.336-0.75,0.75-0.75h2.189C8.312,2.905,8.988,2.75,9.658,2.75c2.532,0,4.592,2.162,4.592,4.82s-2.06,4.821-4.592,4.821c-0.247,0-0.489-0.017-0.727-0.048v1.641c0,0.359-0.255,0.669-0.608,0.736l-2.682,0.516C5.595,15.245,5.547,15.25,5.5,15.25z M8.182,13.984h0.01H8.182z M6.25,4.699v8.893l1.182-0.227v-1.97c0-0.244,0.118-0.472,0.317-0.612c0.199-0.142,0.454-0.175,0.684-0.095c0.379,0.135,0.791,0.203,1.226,0.203c1.705,0,3.092-1.49,3.092-3.321s-1.387-3.32-3.092-3.32c-0.484,0-0.997,0.129-1.443,0.363C8.107,4.67,7.987,4.699,7.866,4.699H6.25z"></path>
  <path d="M9.141 10.382c-.506 0-.917-.093-1.258-.285C7.646 9.964 7.5 9.715 7.5 9.443V5.965c0-.262.137-.504.359-.641C8.213 5.109 8.644 5 9.141 5c1.318 0 2.392 1.204 2.392 2.684C11.532 9.172 10.459 10.382 9.141 10.382zM9 8.878C9.043 8.88 9.09 8.882 9.141 8.882c.483 0 .892-.549.892-1.198 0-.642-.408-1.184-.892-1.184C9.092 6.5 9.045 6.502 9 6.506V8.878zM11.25 21c-.173 0-.342-0.06-.478-0.172C10.6 20.687 10.5 20.474 10.5 20.25v-6.84c0-.414.336-.75.75-.75S12 12.996 12 13.41v5.931l1.18-.229V17.15c0-.241.115-.467.312-.608.194-.141.446-.18.675-.104.407.136.814.201 1.244.201 1.704 0 3.09-1.489 3.09-3.319 0-1.831-1.386-3.32-3.09-3.32-.409.075-.799-.189-.878-.597-.078-.407.188-.802.596-.88C15.229 8.504 15.311 8.5 15.41 8.5c2.531 0 4.59 2.162 4.59 4.82 0 2.657-2.059 4.819-4.59 4.819-.245 0-.489-.017-.73-.049v1.64c0 .359-.255.668-.607.736l-2.68.52C11.346 20.995 11.298 21 11.25 21z"></path>
  <path d="M14.891,16.132c-0.506,0-0.917-0.093-1.258-0.285c-0.236-0.133-0.383-0.382-0.383-0.653v-3.479c0-0.262,0.137-0.504,0.359-0.641c0.354-0.215,0.784-0.324,1.281-0.324c1.318,0,2.392,1.204,2.392,2.684C17.282,14.922,16.209,16.132,14.891,16.132z M14.75,14.628c0.043,0.002,0.09,0.004,0.141,0.004c0.483,0,0.892-0.549,0.892-1.198c0-0.642-0.408-1.184-0.892-1.184c-0.049,0-0.096,0.002-0.141,0.006V14.628z"></path>
</svg>
